HIERARCHY
ROOT SpineBase
{
  OFFSET 0.000000 0.000000 0.000000
  CHANNELS 6 Xposition Yposition Zposition Zrotation Xrotation Yrotation
  JOINT SpineMid
  {
    OFFSET 0.000000 31.640899 0.000000
    CHANNELS 3 Zrotation Xrotation Yrotation
    JOINT SpineShoulder
    {
      OFFSET 0.093760 23.408141 -0.775628
      CHANNELS 3 Zrotation Xrotation Yrotation
      JOINT Neck
      {
        OFFSET 0.079703 7.705850 -0.590372
        CHANNELS 3 Zrotation Xrotation Yrotation
        JOINT Head
        {
          OFFSET 3.464685 13.828813 1.481135
          CHANNELS 3 Zrotation Xrotation Yrotation
          End Site
          {
            OFFSET 0 0 0
          }
        }
      }
      JOINT ShoulderLeft
      {
        OFFSET -14.040268 -4.236060 -8.857915
        CHANNELS 3 Zrotation Xrotation Yrotation
        JOINT ElbowLeft
        {
          OFFSET -8.092755 -24.607260 -2.522828
          CHANNELS 3 Zrotation Xrotation Yrotation
          JOINT WristLeft
          {
            OFFSET -2.185177 -25.115021 -6.464770
            CHANNELS 3 Zrotation Xrotation Yrotation
            JOINT HandLeft
            {
              OFFSET 0.077544 -6.822151 -3.881293
              CHANNELS 3 Zrotation Xrotation Yrotation
              JOINT HandTipLeft
              {
                OFFSET 0.392881 -6.480038 -0.360793
                CHANNELS 3 Zrotation Xrotation Yrotation
                End Site
                {
                  OFFSET 0 0 0
                }
              }
              JOINT ThumbLeft
              {
                OFFSET -0.523073 0.443033 -4.828955
                CHANNELS 3 Zrotation Xrotation Yrotation
                End Site
                {
                  OFFSET 0 0 0
                }
              }
            }
          }
        }
      }
      JOINT ShoulderRight
      {
        OFFSET 13.940318 -5.152947 5.506938
        CHANNELS 3 Zrotation Xrotation Yrotation
        JOINT ElbowRight
        {
          OFFSET 0.627234 -27.329705 0.597539
          CHANNELS 3 Zrotation Xrotation Yrotation
          JOINT WristRight
          {
            OFFSET 7.602400 -24.139284 6.979319
            CHANNELS 3 Zrotation Xrotation Yrotation
            JOINT HandRight
            {
              OFFSET -0.561597 -5.132572 1.075936
              CHANNELS 3 Zrotation Xrotation Yrotation
              JOINT HandTipRight
              {
                OFFSET -0.085536 -6.891543 1.039576
                CHANNELS 3 Zrotation Xrotation Yrotation
                End Site
                {
                  OFFSET 0 0 0
                }
              }
              JOINT ThumbRight
              {
                OFFSET 1.750566 -1.390508 -1.444500
                CHANNELS 3 Zrotation Xrotation Yrotation
                End Site
                {
                  OFFSET 0 0 0
                }
              }
            }
          }
        }
      }
    }
  }
  JOINT HipLeft
  {
    OFFSET -5.734216 0.605693 -6.722000
    CHANNELS 3 Zrotation Xrotation Yrotation
    JOINT KneeLeft
    {
      OFFSET -5.807557 -35.396305 0.691190
      CHANNELS 3 Zrotation Xrotation Yrotation
      JOINT AnkleLeft
      {
        OFFSET -3.130752 -42.431336 10.720583
        CHANNELS 3 Zrotation Xrotation Yrotation
        JOINT FootLeft
        {
          OFFSET 0.769718 -7.493556 -9.325029
          CHANNELS 3 Zrotation Xrotation Yrotation
          End Site
          {
            OFFSET 0 0 0
          }
        }
      }
    }
  }
  JOINT HipRight
  {
    OFFSET 6.854362 -0.112478 -0.819724
    CHANNELS 3 Zrotation Xrotation Yrotation
    JOINT KneeRight
    {
      OFFSET -0.456080 -33.497009 5.177338
      CHANNELS 3 Zrotation Xrotation Yrotation
      JOINT AnkleRight
      {
        OFFSET -5.982883 -44.396769 8.135649
        CHANNELS 3 Zrotation Xrotation Yrotation
        JOINT FootRight
        {
          OFFSET 5.063658 -8.552984 -6.819292
          CHANNELS 3 Zrotation Xrotation Yrotation
          End Site
          {
            OFFSET 0 0 0
          }
        }
      }
    }
  }
}
MOTION
Frames: 9
Frame Time: 0.033333
-62.035770 86.269188 433.281439 1.588194 -1.511453 -29.989311 0.036911 -0.185788 30.070959 0.017351 -0.131417 0.081201 -6.536435 1.498597 0.644091 0.000000 0.000000 0.000000 -0.119306 1.239840 -0.104420 1.596519 0.288659 -0.815688 0.179534 -10.083513 -0.912157 -4.319977 19.095734 3.048408 0.000000 0.000000 0.000000 0.000000 0.000000 0.000000 3.694350 -6.564664 0.026719 -11.603883 20.963827 4.520675 14.066908 10.479072 -2.610717 -7.274233 -15.489047 -0.455448 0.000000 0.000000 0.000000 0.000000 0.000000 0.000000 -2.131070 0.514711 30.019835 -1.737254 -1.084170 -0.374091 0.281583 -8.155731 1.268978 0.000000 0.000000 0.000000 -3.441491 0.388194 29.837462 1.530826 -2.341142 0.508069 -5.236695 3.727252 5.057886 0.000000 0.000000 0.000000
-62.043362 86.668451 433.290774 1.527977 -1.634086 -30.665922 0.035834 -0.177965 30.746750 0.029974 -0.142977 0.080309 -7.071232 2.134045 0.635025 0.000000 0.000000 0.000000 0.379834 1.689560 -0.276721 1.348908 0.126997 -0.718986 2.070069 -7.690379 -1.972084 -5.400819 14.053752 3.837101 0.000000 0.000000 0.000000 0.000000 0.000000 0.000000 3.357454 -5.803375 -0.017461 -11.542990 20.696082 4.517346 16.066989 10.871760 -2.260869 -8.733078 -19.151866 -0.906806 0.000000 0.000000 0.000000 0.000000 0.000000 0.000000 -2.147800 0.625667 30.699442 -1.631065 -1.069774 -0.347237 0.023250 -7.253928 1.539052 0.000000 0.000000 0.000000 -3.511876 1.560985 30.597381 1.409358 -3.918038 0.624710 -7.198384 -1.148660 2.858619 0.000000 0.000000 0.000000
-62.525500 86.800605 433.132331 0.467788 -1.066651 -30.362871 -0.096148 -0.139384 30.383798 -0.046552 -0.056208 0.018469 1.654475 3.369694 -0.859208 0.000000 0.000000 0.000000 1.996468 2.307337 -0.701190 2.131579 -0.425139 -0.550880 2.224702 -5.977603 -2.294365 -6.292048 6.470840 4.140439 0.000000 0.000000 0.000000 0.000000 0.000000 0.000000 4.905349 -7.070792 0.158881 -12.784064 22.581176 5.207721 16.919660 6.402792 -1.369107 -8.953941 -15.173087 -1.145271 0.000000 0.000000 0.000000 0.000000 0.000000 0.000000 0.517476 1.543562 30.376998 -3.483219 -0.919682 -0.429871 -0.227900 -7.789369 2.092439 0.000000 0.000000 0.000000 -0.656245 3.006633 30.558559 -0.815535 -5.378766 0.406921 -7.256707 -0.469518 2.698734 0.000000 0.000000 0.000000
-62.170638 85.673780 433.364861 1.046138 -1.385127 -28.579501 -0.244454 -0.186903 28.626162 -0.074442 -0.031144 0.037016 9.198508 6.597618 -3.151154 0.000000 0.000000 0.000000 0.073963 3.580831 -0.862415 5.798309 -0.709231 -0.879653 1.130919 -5.900352 -2.184498 -5.796105 7.101906 4.525176 0.000000 0.000000 0.000000 0.000000 0.000000 0.000000 5.194226 -8.338343 0.197736 -12.983902 24.411261 5.710983 15.791281 3.161742 -1.216919 -7.035311 -14.635548 -0.418026 0.000000 0.000000 0.000000 0.000000 0.000000 0.000000 -0.679590 1.769912 28.526577 -3.007800 -1.230068 -0.353026 -0.839425 -8.041010 2.779876 0.000000 0.000000 0.000000 -0.641591 3.812096 28.891599 -2.442082 -7.377239 0.286421 -4.153607 4.822904 2.995256 0.000000 0.000000 0.000000
-61.339599 83.404661 433.925789 2.750015 -2.463158 -26.021008 -0.050734 -0.068067 26.181225 -0.001627 -0.052437 0.133522 14.129314 11.246783 -6.374709 0.000000 0.000000 0.000000 -6.313855 5.078413 -0.373700 13.440143 -0.306302 -1.950664 -2.037815 -7.488957 -1.204962 -2.204634 12.460429 3.964020 0.000000 0.000000 0.000000 0.000000 0.000000 0.000000 4.448169 -10.048517 0.161917 -13.166514 27.661915 6.544736 11.660202 1.174712 -2.520157 -0.415713 -14.156430 2.064917 0.000000 0.000000 0.000000 0.000000 0.000000 0.000000 -5.033927 2.560581 25.808699 -0.573310 -3.166296 0.075206 -1.900170 -7.661813 3.390859 0.000000 0.000000 0.000000 -1.850893 4.296427 26.463658 -4.473742 -9.004490 0.021981 4.332083 16.209038 1.941700 0.000000 0.000000 0.000000
-60.251694 78.932994 434.688512 6.401607 -5.565341 -22.108008 -0.146496 -0.028226 22.653817 -0.246879 -0.078673 0.303407 20.851059 14.404504 -10.595598 0.000000 0.000000 0.000000 -16.983968 5.289420 2.033068 21.439659 3.751103 -4.570533 -2.408283 -11.694466 -0.688136 1.175592 21.384298 2.925114 0.000000 0.000000 0.000000 0.000000 0.000000 0.000000 2.153680 -9.476822 -0.117834 -11.572166 28.869832 6.316776 0.542447 9.284890 -6.938823 14.991035 -15.965773 9.338334 0.000000 0.000000 0.000000 0.000000 0.000000 0.000000 -13.377759 6.056792 22.106997 3.030342 -7.954925 1.026859 -2.625534 -5.189493 3.560028 0.000000 0.000000 0.000000 -3.943952 4.268488 23.037869 -8.109351 -7.351198 -0.556216 21.619520 42.761947 -0.440424 0.000000 0.000000 0.000000
-58.970598 76.310147 435.517388 8.739846 -7.267895 -19.482086 -0.184368 0.072791 20.350051 -0.422278 -0.055355 0.414456 24.107565 17.738066 -14.282732 0.000000 0.000000 0.000000 -53.679564 -10.972306 8.297836 61.740483 10.663691 -19.857982 -3.433926 -15.378622 -0.179311 5.658995 30.108836 0.960204 0.000000 0.000000 0.000000 0.000000 0.000000 0.000000 0.534034 -9.862703 -0.189189 -7.924835 27.739086 4.971541 -12.658242 15.845254 -9.234654 36.287122 -3.445989 17.580042 0.000000 0.000000 0.000000 0.000000 0.000000 0.000000 -19.459396 10.001018 19.899975 5.581055 -13.439723 2.053101 -2.801947 -2.832039 3.941985 0.000000 0.000000 0.000000 -6.136173 3.987454 20.771578 -10.484512 -6.884856 -0.896826 58.906904 63.329289 -25.645321 0.000000 0.000000 0.000000
-57.507642 74.298596 436.561997 9.980839 -7.697158 -16.385346 0.234410 -0.127149 17.430085 -0.751183 0.153942 0.469106 22.212511 21.497666 -16.022181 0.000000 0.000000 0.000000 -130.924148 -44.527440 -19.636850 132.247728 -3.815463 -51.730744 -1.263213 -18.955832 -0.686722 4.702373 35.778148 1.442753 0.000000 0.000000 0.000000 0.000000 0.000000 0.000000 -0.725890 -10.572903 -0.184859 -2.790986 24.109076 2.938685 -17.028832 16.806781 -7.788686 47.761292 16.029690 15.019334 0.000000 0.000000 0.000000 0.000000 0.000000 0.000000 -23.306666 14.193115 17.153200 7.007731 -18.968818 2.852842 -2.050040 -0.590334 4.250462 0.000000 0.000000 0.000000 -7.425023 3.407777 17.841734 -11.422200 -6.942449 -0.963916 114.333950 67.972241 -72.797338 0.000000 0.000000 0.000000
-55.812286 73.809308 437.842501 10.047069 -5.370642 -14.893039 -0.309665 0.233227 15.695543 -0.496164 0.035036 0.438196 13.692533 22.518068 -13.196288 0.000000 0.000000 0.000000 -156.086912 39.117940 72.993641 128.836921 -3.686308 69.042977 -1.515221 -18.993159 -1.053190 4.157341 39.000031 1.496990 0.000000 0.000000 0.000000 0.000000 0.000000 0.000000 1.452646 -16.691748 0.479857 -2.111091 15.351740 -0.040882 -12.961912 2.701188 -0.113265 60.381702 24.563273 -6.196191 0.000000 0.000000 0.000000 0.000000 0.000000 0.000000 -23.948376 16.191036 14.830273 6.083462 -23.871700 2.762209 0.064077 2.070373 4.438027 0.000000 0.000000 0.000000 -7.522031 -0.079175 16.004405 -10.674721 -5.880933 -0.724013 137.632219 62.383585 -92.156368 0.000000 0.000000 0.000000
